<svg width="25" height="25" viewBox="0 0 25 25" fill="none" xmlns="http://www.w3.org/2000/svg">
<path d="M4.47701 10.34C4.51724 9.83881 4.74477 9.37115 5.11429 9.03017C5.48381 8.68918 5.96821 8.4999 6.47101 8.5H18.529C19.0318 8.4999 19.5162 8.68918 19.8857 9.03017C20.2553 9.37115 20.4828 9.83881 20.523 10.34L21.326 20.34C21.3481 20.6152 21.313 20.892 21.2228 21.1529C21.1327 21.4139 20.9895 21.6533 20.8023 21.8562C20.6151 22.0592 20.3879 22.2211 20.135 22.3319C19.8822 22.4427 19.6091 22.4999 19.333 22.5H5.66701C5.39093 22.4999 5.11786 22.4427 4.86499 22.3319C4.61212 22.2211 4.38492 22.0592 4.19771 21.8562C4.01049 21.6533 3.86731 21.4139 3.77718 21.1529C3.68705 20.892 3.65193 20.6152 3.67401 20.34L4.47701 10.34V10.34Z" stroke="white" stroke-width="2" stroke-linecap="round" stroke-linejoin="round"/>
<path d="M16.5 11.5V6.5C16.5 5.43913 16.0786 4.42172 15.3284 3.67157C14.5783 2.92143 13.5609 2.5 12.5 2.5C11.4391 2.5 10.4217 2.92143 9.67157 3.67157C8.92143 4.42172 8.5 5.43913 8.5 6.5V11.5" stroke="white" stroke-width="2" stroke-linecap="round" stroke-linejoin="round"/>
</svg>
