<svg width="92" height="62" viewBox="0 0 92 62" fill="none" xmlns="http://www.w3.org/2000/svg">
<path d="M8.15039 42H2.31055C2.14128 42 2.05664 41.9154 2.05664 41.7461L2.1582 6.02148C2.1582 5.88607 2.22591 5.81836 2.36133 5.81836H19.0176C19.1868 5.81836 19.2715 5.88607 19.2715 6.02148V11.8867C19.2715 12.0221 19.2038 12.0898 19.0684 12.0898H8.4043V20.1641H19.0684C19.2038 20.1641 19.2715 20.2487 19.2715 20.418L19.3223 26.3086C19.3223 26.444 19.2376 26.5117 19.0684 26.5117H8.4043V41.7461C8.4043 41.9154 8.31966 42 8.15039 42Z" fill="#EC6C42"/>
<path d="M31.4844 42.5078C29.6393 42.5078 27.9382 42.0339 26.3809 41.0859C24.8405 40.138 23.5964 38.877 22.6484 37.3027C21.7174 35.7116 21.252 33.9681 21.252 32.0723L21.3027 15.5938C21.3027 13.6641 21.7682 11.929 22.6992 10.3887C23.6133 8.83138 24.849 7.58724 26.4062 6.65625C27.9635 5.70833 29.6562 5.23438 31.4844 5.23438C33.3802 5.23438 35.0814 5.69987 36.5879 6.63086C38.1113 7.56185 39.3301 8.81445 40.2441 10.3887C41.1751 11.946 41.6406 13.681 41.6406 15.5938L41.6914 32.0723C41.6914 33.9681 41.2344 35.7031 40.3203 37.2773C39.3893 38.8685 38.1536 40.138 36.6133 41.0859C35.0729 42.0339 33.3633 42.5078 31.4844 42.5078ZM31.4844 36.2363C32.5339 36.2363 33.4479 35.8132 34.2266 34.9668C35.0052 34.1035 35.3945 33.1387 35.3945 32.0723L35.3438 15.5938C35.3438 14.4427 34.9798 13.4694 34.252 12.6738C33.5241 11.8783 32.6016 11.4805 31.4844 11.4805C30.418 11.4805 29.5039 11.8698 28.7422 12.6484C27.9805 13.4271 27.5996 14.4089 27.5996 15.5938V32.0723C27.5996 33.2064 27.9805 34.1882 28.7422 35.0176C29.5039 35.8301 30.418 36.2363 31.4844 36.2363Z" fill="#EC6C42"/>
<path d="M55.25 42.5078C53.4049 42.5078 51.7038 42.0339 50.1465 41.0859C48.6061 40.138 47.362 38.877 46.4141 37.3027C45.4831 35.7116 45.0176 33.9681 45.0176 32.0723L45.0684 15.5938C45.0684 13.6641 45.5339 11.929 46.4648 10.3887C47.3789 8.83138 48.6146 7.58724 50.1719 6.65625C51.7292 5.70833 53.4219 5.23438 55.25 5.23438C57.1458 5.23438 58.847 5.69987 60.3535 6.63086C61.877 7.56185 63.0957 8.81445 64.0098 10.3887C64.9408 11.946 65.4062 13.681 65.4062 15.5938L65.457 32.0723C65.457 33.9681 65 35.7031 64.0859 37.2773C63.1549 38.8685 61.9193 40.138 60.3789 41.0859C58.8385 42.0339 57.1289 42.5078 55.25 42.5078ZM55.25 36.2363C56.2995 36.2363 57.2135 35.8132 57.9922 34.9668C58.7708 34.1035 59.1602 33.1387 59.1602 32.0723L59.1094 15.5938C59.1094 14.4427 58.7454 13.4694 58.0176 12.6738C57.2897 11.8783 56.3672 11.4805 55.25 11.4805C54.1836 11.4805 53.2695 11.8698 52.5078 12.6484C51.7461 13.4271 51.3652 14.4089 51.3652 15.5938V32.0723C51.3652 33.2064 51.7461 34.1882 52.5078 35.0176C53.2695 35.8301 54.1836 36.2363 55.25 36.2363Z" fill="#EC6C42"/>
<path d="M78.9648 41.9492L69.6465 42C69.4772 42 69.3926 41.9154 69.3926 41.7461L69.4941 6.02148C69.4941 5.88607 69.5619 5.81836 69.6973 5.81836L79.4219 5.76758C81.3516 5.7168 83.0951 6.1569 84.6523 7.08789C86.2266 8.01888 87.4792 9.27995 88.4102 10.8711C89.3581 12.4453 89.832 14.1888 89.832 16.1016V31.0312C89.832 33.0286 89.3496 34.8568 88.3848 36.5156C87.403 38.1576 86.0996 39.4694 84.4746 40.4512C82.8496 41.416 81.013 41.9154 78.9648 41.9492ZM79.4219 11.9883L75.791 12.0391L75.7402 35.6016H78.9648C80.2513 35.6016 81.3346 35.153 82.2148 34.2559C83.0951 33.3587 83.5352 32.2839 83.5352 31.0312V16.0508C83.5352 14.9505 83.1289 13.9941 82.3164 13.1816C81.5039 12.3522 80.5391 11.9544 79.4219 11.9883Z" fill="#EC6C42"/>
<path d="M5.3125 61H1.49716V48.6364H5.48154C6.68087 48.6364 7.70715 48.8839 8.56037 49.3789C9.41359 49.8699 10.0676 50.5762 10.5224 51.4979C10.9772 52.4155 11.2045 53.5142 11.2045 54.794C11.2045 56.0819 10.9751 57.1907 10.5163 58.1204C10.0575 59.046 9.38944 59.7584 8.51208 60.2575C7.63471 60.7525 6.56818 61 5.3125 61ZM2.99432 59.6719H5.21591C6.23817 59.6719 7.08535 59.4747 7.75746 59.0803C8.42957 58.6858 8.93064 58.1244 9.26066 57.396C9.59067 56.6675 9.75568 55.8002 9.75568 54.794C9.75568 53.7959 9.59269 52.9367 9.26669 52.2163C8.9407 51.4918 8.45372 50.9364 7.80576 50.5501C7.15779 50.1597 6.35086 49.9645 5.38495 49.9645H2.99432V59.6719Z" fill="black"/>
<path d="M24.1477 54.8182C24.1477 56.1222 23.9123 57.2491 23.4414 58.1989C22.9705 59.1487 22.3246 59.8812 21.5036 60.3963C20.6825 60.9115 19.7448 61.169 18.6903 61.169C17.6359 61.169 16.6982 60.9115 15.8771 60.3963C15.0561 59.8812 14.4102 59.1487 13.9393 58.1989C13.4684 57.2491 13.233 56.1222 13.233 54.8182C13.233 53.5142 13.4684 52.3873 13.9393 51.4375C14.4102 50.4877 15.0561 49.7552 15.8771 49.2401C16.6982 48.7249 17.6359 48.4673 18.6903 48.4673C19.7448 48.4673 20.6825 48.7249 21.5036 49.2401C22.3246 49.7552 22.9705 50.4877 23.4414 51.4375C23.9123 52.3873 24.1477 53.5142 24.1477 54.8182ZM22.6989 54.8182C22.6989 53.7476 22.5198 52.8441 22.1616 52.1076C21.8074 51.3711 21.3265 50.8137 20.7188 50.4354C20.1151 50.0571 19.4389 49.8679 18.6903 49.8679C17.9418 49.8679 17.2636 50.0571 16.6559 50.4354C16.0522 50.8137 15.5713 51.3711 15.2131 52.1076C14.8589 52.8441 14.6818 53.7476 14.6818 54.8182C14.6818 55.8887 14.8589 56.7923 15.2131 57.5288C15.5713 58.2653 16.0522 58.8227 16.6559 59.201C17.2636 59.5793 17.9418 59.7685 18.6903 59.7685C19.4389 59.7685 20.1151 59.5793 20.7188 59.201C21.3265 58.8227 21.8074 58.2653 22.1616 57.5288C22.5198 56.7923 22.6989 55.8887 22.6989 54.8182Z" fill="black"/>
<path d="M33.4265 51.7273C33.3541 51.1155 33.0603 50.6406 32.5451 50.3026C32.03 49.9645 31.3981 49.7955 30.6495 49.7955C30.1022 49.7955 29.6232 49.884 29.2127 50.0611C28.8062 50.2382 28.4883 50.4817 28.2589 50.7915C28.0335 51.1014 27.9208 51.4536 27.9208 51.848C27.9208 52.178 27.9993 52.4618 28.1563 52.6992C28.3172 52.9326 28.5225 53.1278 28.772 53.2848C29.0215 53.4377 29.2831 53.5645 29.5568 53.6651C29.8305 53.7617 30.082 53.8402 30.3114 53.9006L31.5671 54.2386C31.8891 54.3232 32.2473 54.4399 32.6417 54.5888C33.0401 54.7377 33.4205 54.9409 33.7827 55.1985C34.1489 55.4521 34.4508 55.7781 34.6882 56.1765C34.9257 56.5749 35.0444 57.0639 35.0444 57.6435C35.0444 58.3116 34.8693 58.9152 34.5192 59.4545C34.1731 59.9938 33.666 60.4225 32.9979 60.7404C32.3338 61.0584 31.5269 61.2173 30.5771 61.2173C29.6916 61.2173 28.925 61.0745 28.277 60.7887C27.6331 60.503 27.1259 60.1045 26.7557 59.5934C26.3894 59.0823 26.1822 58.4886 26.1339 57.8125H27.6793C27.7196 58.2794 27.8765 58.6657 28.1502 58.9716C28.4279 59.2734 28.7781 59.4988 29.2006 59.6477C29.6273 59.7926 30.0861 59.8651 30.5771 59.8651C31.1486 59.8651 31.6617 59.7725 32.1165 59.5874C32.5713 59.3982 32.9315 59.1366 33.1971 58.8026C33.4627 58.4645 33.5955 58.0701 33.5955 57.6193C33.5955 57.2088 33.4808 56.8748 33.2514 56.6172C33.022 56.3596 32.7202 56.1503 32.3459 55.9893C31.9716 55.8284 31.5671 55.6875 31.1325 55.5668L29.6112 55.1321C28.6452 54.8544 27.8806 54.458 27.3171 53.9428C26.7537 53.4277 26.4719 52.7536 26.4719 51.9205C26.4719 51.2282 26.6591 50.6245 27.0334 50.1094C27.4117 49.5902 27.9188 49.1877 28.5547 48.902C29.1946 48.6122 29.909 48.4673 30.6978 48.4673C31.4947 48.4673 32.203 48.6102 32.8228 48.896C33.4426 49.1777 33.9336 49.564 34.2958 50.055C34.6621 50.546 34.8552 51.1035 34.8754 51.7273H33.4265Z" fill="black"/>
<path d="M36.8298 49.9645V48.6364H46.1025V49.9645H42.2148V61H40.7176V49.9645H36.8298Z" fill="black"/>
<path d="M47.4759 61H45.9063L50.4461 48.6364H51.9916L56.5313 61H54.9617L51.2671 50.5923H51.1705L47.4759 61ZM48.0555 56.1705H54.3822V57.4986H48.0555V56.1705Z" fill="black"/>
<path d="M57.8021 48.6364L61.4726 59.044H61.6175L65.2879 48.6364H66.8575L62.3177 61H60.7723L56.2325 48.6364H57.8021Z" fill="black"/>
<path d="M68.7833 61V48.6364H70.2805V54.7699H70.4253L75.9793 48.6364H77.9353L72.7435 54.2145L77.9353 61H76.1242L71.8259 55.2528L70.2805 56.9915V61H68.7833Z" fill="black"/>
<path d="M80.3802 61H78.8106L83.3504 48.6364H84.8959L89.4356 61H87.866L84.1714 50.5923H84.0748L80.3802 61ZM80.9598 56.1705H87.2865V57.4986H80.9598V56.1705Z" fill="black"/>
</svg>
